# xmcd
#
# Track frame offsets:
#	150
#	11558
#	25945
#	41920
#	55788
#	66447
#	80012
#	93543
#	108176
#	120944
#	130631
#	145017
#	156602
#
# Disc length: 2301 seconds
#
# Revision: 3
# Processed by: cddbd v1.5.2PL0 Copyright (c) Steve Scherf et al.
# Submitted via: audiograbber 1.83.01
#
DISCID=ac08fb0d
DTITLE=John Williamson - Hillbilly Road
DYEAR=2008
DGENRE=Country
TTITLE0=Flowers On The Concrete
TTITLE1=Drink A Little Love
TTITLE2=Dark Irish Eyes
TTITLE3=Hillbilly Road
TTITLE4=Catch A Virgin
TTITLE5=Cydi
TTITLE6=Pmarra Knatcha (My Home In The Bush) (with Warren H. Williams)
TTITLE7=Australia Is Another Word For Free (with Warren H. Williams and Amos Morr
TTITLE7=is)
TTITLE8=Better Than A Picture
TTITLE9=Rivers, Wood 'n' Wire
TTITLE10=Beach Of Love
TTITLE11=Tomorrow's Worries
TTITLE12=The Joy Is In The Journey (from the Australian Folk Musical ''Quambato
TTITLE12=ok'')
EXTD=
EXTT0=
EXTT1=
EXTT2=
EXTT3=
EXTT4=
EXTT5=
EXTT6=
EXTT7=
EXTT8=
EXTT9=
EXTT10=
EXTT11=
EXTT12=
PLAYORDER=
